<svg xmlns="http://www.w3.org/2000/svg" width="24" height="23" viewBox="0 0 24 23" focusable="false"><g fill="none" fill-rule="evenodd"><path fill="#D0021B" d="M0 .5h24v22H0z"/><path fill="#FFF" d="M12 4.515L10.655 6.8a.154.154 0 0 1-.121.067c-.025 0-1.46-.76-1.46-.76l.855 3.588a.137.137 0 0 1 .007.052c0 .13-.111.232-.24.232a.259.259 0 0 1-.172-.066L8.003 8.217l-.583.991a.189.189 0 0 1-.136.068c-.008 0-1.91-.358-1.91-.358s.649 1.97.649 1.989a.172.172 0 0 1-.09.148l-.805.442 3.487 2.662c.032.032.05.073.05.118 0 .022-.368 1.393-.368 1.393s3.076-.612 3.09-.612c.115 0 .213.095.213.208l-.064 3.219h.927l-.058-3.219a.21.21 0 0 1 .21-.208c.013 0 3.089.612 3.089.612s-.37-1.37-.37-1.393c0-.045.02-.086.051-.118l3.487-2.662-.804-.442a.17.17 0 0 1-.09-.148c0-.02.648-1.99.648-1.99s-1.899.359-1.905.359a.19.19 0 0 1-.141-.068l-.583-.991-1.52 1.697a.27.27 0 0 1-.172.066.238.238 0 0 1-.242-.232c0-.018.862-3.64.862-3.64s-1.434.76-1.456.76a.146.146 0 0 1-.122-.067l-1.348-2.286"/></g></svg>