<svg xmlns="http://www.w3.org/2000/svg" width="385.000000pt" height="533.000000pt" viewBox="0 0 385.000000 533.000000" preserveAspectRatio="xMidYMid meet" focusable="false"><g transform="translate(0.000000,533.000000) scale(0.100000,-0.100000)" fill="#000000" stroke="none"><path d="M137 5315 c-57 -21 -95 -52 -117 -95 -20 -39 -20 -68 -20 -2458 0 -2378 0 -2420 20 -2496 28 -111 67 -191 111 -231 36 -32 44 -35 105 -35 70 0 149 29 195 73 24 22 1260 1613 1309 1684 22 32 25 47 25 127 0 104 -15 162 -51 206 -22 25 -33 30 -72 30 -53 0 -117 -28 -154 -67 -14 -16 -108 -149 -209 -298 -456 -675 -738 -1058 -814 -1105 -33 -20 -81 -26 -101 -12 -33 22 -34 42 -34 1164 0 1098 1 1114 21 1158 25 55 62 96 111 121 35 18 66 19 593 19 597 0 583 -1 632 52 54 57 70 164 32 212 -11 15 -40 37 -62 49 -41 22 -49 22 -582 28 -521 5 -542 6 -607 27 -47 16 -75 32 -97 57 l-31 36 0 720 0 720 25 24 24 25 552 0 c390 0 563 3 590 12 53 15 115 70 129 113 13 39 5 108 -14 124 -31 26 -164 31 -806 30 -542 0 -672 -3 -703 -14z"/><path d="M1987 5306 c-21 -8 -47 -22 -59 -33 -51 -46 -48 36 -48 -1573 0 -1319 2 -1505 15 -1530 33 -63 109 -69 173 -14 28 23 175 236 440 632 612 918 638 961 649 1065 5 48 -5 124 -22 168 -4 12 16 30 77 70 324 212 561 470 622 678 24 80 21 222 -5 307 -40 129 -75 175 -164 216 l-50 23 -795 2 c-653 2 -802 0 -833 -11z m1490 -232 c49 -37 68 -80 66 -159 -3 -209 -174 -420 -467 -575 l-79 -41 -351 3 c-333 3 -353 4 -386 24 -19 11 -45 35 -57 54 -23 32 -23 38 -23 332 0 247 3 304 15 328 32 61 13 60 662 57 584 -2 592 -2 620 -23z m-827 -1104 c53 -15 113 -99 125 -176 9 -58 -10 -99 -151 -330 -157 -258 -272 -428 -318 -473 -42 -41 -81 -44 -107 -10 -17 22 -19 54 -19 489 0 405 2 468 16 488 15 21 20 22 217 22 111 0 218 -5 237 -10z"/></g></svg>