<svg xmlns="http://www.w3.org/2000/svg" width="100" height="24" viewBox="0 0 180 34" focusable="false"><defs/><title>EB_Outlet_logo</title><g><g><path class="st0" d="M75,8.9c0.4,0,0.7-0.3,0.7-0.9c0-0.7-0.8-2.2-1.3-2.6C74.1,5.1,73.8,5,73.5,5c-0.5,0-0.9,0.3-0.9,0.8 c0,0.3,0.2,0.5,0.4,0.6c0.5,0.5,1,1,1.4,1.9C74.5,8.5,74.6,8.9,75,8.9 M120,13.5c-0.5,0-4.2,0-6.1,0.2c-0.2,0-0.4,0-0.4-0.2 c-0.1-0.3-0.5-1.2-1.4-2c-0.1-0.1-0.1-0.2,0.1-0.3c2.9-0.9,8.5-3.6,8.5-7.4c0-2-1.7-3.2-4.5-3.2c-4.3,0-9.9,3.1-11.6,3.9 c-0.2,0.1-0.4,0.2-0.4-0.2c-0.2-0.8-0.8-2.1-2.5-2.1c-4.2,0-9.7,6.3-11.3,8.1c-3.1,3.5-7.3,9-10.7,9c-0.6,0-1.1-0.2-1.2-0.3 c-0.1-0.1-0.1-0.2,0.1-0.3c4.6-3.2,4.3-5.5,4.3-5.9c0-1.3-1-2.7-2.9-2.7c-2.9,0-5.9,3.4-5.9,6.4c0,1,0.3,1.7,0.5,2.2 c0.1,0.2,0,0.3-0.2,0.4c-0.2,0.1-1.2,0.4-1.9,0.4c-1.6,0-2.3-1-2.3-1.9c0-1.1,1.2-2.5,1.9-3c0.3-0.2,0.6-0.5,0.6-1 c0-0.6-0.8-1.1-1.4-1.1c-0.7,0-1.3,0.6-1.6,0.9C69,14.2,68.5,15,68.1,16c-0.1,0.2-0.1,0.4-0.4,0.7c-0.6,0.8-1.9,2.2-3.5,2.2 c-1.2,0-1.8-1-2-1.6c0-0.1,0-0.3,0.1-0.4C66,14,70.2,8.4,70.3,5.8c0-0.4-0.1-1.4-1.3-1.4c-1.9,0-5.1,2.2-7.1,4.9 c-1,1.3-1.4,2.2-2.1,3.6c-0.1,0.3-0.2,0.3-0.4,0.2c-0.2,0-1.7-0.3-3-0.3c-4.7,0-6.8,2.8-6.8,4.9c0,0.2-0.1,0.3-0.3,0.4 c-0.2,0-1,0.4-2.1,0.4c-1.9,0-2.5-1.1-2.7-1.6c-0.1-0.2-0.1-0.4,0.1-0.5c1.7-1.2,3.9-2.9,5.7-4.8c2-2,3.6-4.1,3.6-5.3 C54,5.8,53.8,5,52.5,5c-3.8,0-9.5,5-10.9,8.8c-0.1,0.2-0.2,0.3-0.4,0.1c-0.3-0.1-2.8-1.3-5.2-1.3c-3.9,0-6.2,2.2-6.4,4.5 c0,0.2-0.1,0.5-0.4,0.6c-3.5,2.1-7.1,3-9.1,3c-1.9,0-3.5-0.4-4.4-1.6c-0.1-0.2-0.1-0.3,0.1-0.3c9.1-4.3,16.8-8,24.4-13.1 c1.3-0.9,2.5-1.7,2.5-3.1c0-2.4-5.2-2.7-6.9-2.7c-6.3,0-15,3-15,6.6c0,1.6,1.5,2.4,2.5,2.8c0.1,0,0.1,0.1,0,0.1l-1,0 c-11.6,0-13.9,5.7-13.9,7.9c0,1.2,0.4,2,0.7,2.6c0.1,0.1,0,0.2-0.1,0.2c-0.7,0.4-8.2,3.7-8.4,3.8c-0.5,0.2-0.8,0.6-0.6,1.1 c0.2,0.4,0.6,0.6,1.1,0.4c0.3-0.1,8.9-4,9.1-4c0.1-0.1,0.2-0.1,0.4,0c1.8,1.3,3.6,2.1,6.5,2.1c4.3,0,8.9-1.9,12.3-3.8 c0.5-0.2,0.6-0.2,0.7-0.1c0.5,1,1.6,2,3.1,2c2.5,0,6.3-2.2,8.2-3.2c0.1-0.1,0.4-0.1,0.5,0.1c1,1.3,2.1,2,4.2,2 c1.3,0,2.6-0.3,3.5-0.7c0.2-0.1,0.4-0.1,0.6,0.1c0.7,0.9,1.9,1.4,3.1,1.4c2.6,0,5.2-1.5,6.1-2.2c0.2-0.1,0.5-0.2,0.6,0.1 c0.6,0.9,1.4,2,3.6,2c2.1,0,3.6-1.7,4-2c0.2-0.1,0.4-0.2,0.5,0.1c0.5,1.1,1.6,2.1,3.7,2.1c1.1,0,2.7-0.5,3.7-1 c0.2-0.1,0.4-0.1,0.6,0c0.8,0.5,1.6,0.9,3,0.9c3.1,0,5.4-2.2,7.5-4.2c1.1-1.1,1.3-1.4,3.4-3.8c1.4-1.5,3.2-3.7,5.7-5.9 c2.2-2,4.2-3.2,5.4-3.2c1,0,1.2,0.8,1.2,1.2c0,0.2,0,0.3-0.2,0.4c-1.6,1-5,3.4-7.8,6.1c-2.8,2.8-5.4,6-5.4,8.1 c0,1.3,0.7,1.6,1.7,1.6c2.3,0,5.3-2.4,7.6-4.9c1.8-1.9,3.3-4.1,4.2-5.5c0.1-0.2,0.2-0.3,0.4-0.1c0.6,0.7,2.1,0.9,3.3,0.9 c1.4,0,2.3-0.2,2.7-0.3c0.2,0,0.5-0.1,0.7,0.3c0.2,0.4,0.5,0.8,0.6,1.4c0,0.2,0,0.3-0.4,0.4c-3.3,0.6-7.1,1.6-10.1,2.9 c-1.5,0.7-2.3,1.7-2.3,2.7c0,2.1,2.4,4.8,6.6,4.8c2.3,0,3.6-0.6,4.9-1.3c2.9-1.5,5-4.4,5.1-7.3c0-0.3,0.1-0.5,0.5-0.5 c0.4,0,1.6-0.1,2-0.1c0.5,0,1.3,0,1.6,0c0.2,0,0.3,0.1,0.2,0.2c-0.6,0.7-1.5,2-1.5,3.3c0,1.2,0.8,2.7,3.1,2.7 c2.6,0,4.9-1.8,5.9-2.6c0.1-0.1,0.5-0.3,0.6,0c0.3,0.7,0.8,2,2.4,2c1.8,0,3.1-1.2,3.9-1.8c0.2-0.1,0.6-0.4,0.8,0 c0.2,0.4,1,2.2,2.8,2.2c2.2,0,4-2,4.3-2.2c0.1-0.1,0.6-0.4,0.8,0c0.8,1.4,2.1,2.4,4.2,2.4c1.4,0,1.9-0.4,2.8-0.6 c0.2,0,0.3-0.1,0.5,0c0.2,0.1,1.1,0.5,2.5,0.5c5.5,0,8.6-5.6,9.4-6.8c0.2-0.2,0.2-0.3,0.4-0.3c0.2,0.1,0.8,0.3,1,0.5 c0.2,0.2,0.3,0.4,0.2,0.6c-0.1,0.4-1,2.2-1,3c0,0.5,0.2,0.8,0.3,1c0.1,0.2,1.5,2.2,2.7,2.2c0.6,0,1.4-0.3,1.9-0.5 c2.3-1,6.8-3.6,9.9-5.1c0.4-0.2,1.5-0.7,2.1-0.7c0.5,0,0.6,0.5,0.6,0.6c0,0.1-0.2,0.7-0.3,0.9c-0.1,0.2,0,0.3,0.2,0.3 c0.2,0,0.3-0.1,0.3-0.2c0.9-0.9,1.2-1.7,1.2-2.7c0-1.3-1-2.1-2.1-2.1c-1.4,0-2.4,0.6-3.5,1.1c-1.2,0.6-7.8,4.6-8.2,4.8 c-0.4,0.2-1.1,0.6-1.5,0.6c-0.5,0-0.9-0.3-0.9-0.8c0-0.4,0.1-0.6,0.2-0.7c0.2-0.5,1.1-1.9,1.1-2.9c0-0.7-0.4-1.1-0.6-1.2 c-0.5-0.4-1.1-0.5-1.9-1c-1.6-0.9-1.5-1.2-2.3-1.2c-0.9,0-2,1-2,2c0,0.5,0.2,0.7,0.3,0.9c0.1,0.1,0.2,0.3,0.2,0.4 c0,0.1-0.1,0.4-0.1,0.5c-0.9,1.5-3.8,4.6-6.8,4.5c-0.3,0-0.4,0-0.4-0.2c0-0.1,0.1-0.2,0.2-0.2c1.1-0.8,3.5-3.1,3.5-5.2 c0-0.3-0.1-0.8-0.4-1.3c-0.2-0.4-0.9-1.6-2-1.6c-0.9,0-2.8,0.7-4.2,1.9c-1.4,1.2-2.4,2.8-2.4,4.5c0,0.8,0.3,1.6,0.5,1.8 c0.1,0.2,0.1,0.4-0.2,0.5c-0.2,0.1-0.8,0.2-1.2,0.2c-1.4,0-2.2-0.9-2.2-2.2c0-1.3,0.8-2.9,1.4-3.8c0.3-0.4,0-0.7-0.3-0.8 c-0.3-0.1-0.6-0.2-1-0.2c-0.3,0-0.9,0-1.3,0.6c-0.5,0.7-1.2,2.5-1.5,2.9c-0.3,0.6-1.8,2.6-3.9,2.6c-0.5,0-1.4-0.3-1.4-1.3 c0-1.2,1-2.8,1.7-3.6c0.1-0.2,0.3-0.3,0.3-0.6c0-0.4-0.5-0.7-1.3-0.7c-0.7,0-1,0.2-1.3,0.6c-0.8,1-1.4,2-2.2,3 c-0.8,1-1.8,1.8-2.9,1.8c-1,0-1.7-0.6-1.7-1.2c0-0.3,0.1-0.5,0.2-0.7c0.2-0.3,0.5-0.8,0.8-1.3c0.3-0.5,0.6-0.9,0.6-1.5 c0-0.8-0.8-1.9-3.3-1.9c-2,0-4.1,1-5.3,1.7C120.6,13.4,120.5,13.5,120,13.5 M149.5,17.8c-0.1,0.1-0.2,0.1-0.3,0.1 c-0.5,0-0.6-1.1-0.6-1.4c0-0.8,0.4-1.8,1.1-2.5c0.7-0.8,1.8-1.4,2.3-1.4c0.5,0,0.5,0.5,0.5,0.8C152.4,15.2,150.5,17.1,149.5,17.8 M109.9,16.3c0,0.8-2.2,6.2-5.6,6.1c-2.5,0-3.6-1.2-3.6-2.3c0-1,1-1.6,1.6-1.9c1.6-0.8,4.4-1.7,7.2-2.2 C109.7,16,109.9,16,109.9,16.3 M116.9,4c0,2.4-4.2,5.1-6.6,5.8c-0.2,0.1-0.4,0.1-0.6,0c-0.2-0.1-1.6-0.8-3.5-0.8 c-1.6,0-2.6,0.6-2.8,0.6c-0.2,0.1-0.2,0-0.1-0.2c0.4-0.9,0.7-2.1,0.8-2.4c0-0.2,0.2-0.4,0.3-0.5c2.6-1.6,7.7-3.9,10.6-3.9 C116.6,2.8,116.9,3.5,116.9,4 M101.5,9c-0.8,1.7-2.7,4.7-4.8,6.9c-0.4,0.4-2.7,2.8-3.8,2.8c-0.4,0-0.6-0.4-0.6-0.6 c0-0.6,1.3-2.3,1.7-2.8c1.7-2,5.2-5.1,7.2-6.5C101.4,8.6,101.5,8.9,101.5,9 M77.4,17.6c-0.2,0.1-0.4,0.1-0.5-0.1 c-0.2-0.3-0.3-0.8-0.3-1.3c0-2,1.9-4,3.5-4c0.5,0,1.1,0.3,1.1,1C81.1,15,78.5,16.9,77.4,17.6 M66,10.6c-1.4,1.8-1.9,2.6-3.5,4.2 c-0.1,0.1-0.2,0.2-0.3,0.2c-0.2,0-0.1-0.2-0.1-0.4c0-0.2,0.3-2.2,1.8-4.7c1.4-2.4,3-3.4,3.5-3.4c0.3,0,0.4,0.3,0.4,0.5 C67.8,8,66.5,10,66,10.6 M53.1,17.5c0-1.1,1.3-2.9,4.4-2.9c0.6,0,1.1,0.1,1.3,0.1c0.3,0.1,0.4,0.2,0.4,0.4c0,0.3,0,0.6,0,0.9 c0,0.3,0.1,0.7,0.1,1.1c0,0.3-0.3,0.6-0.5,0.7c-0.6,0.4-2.1,1.4-3.6,1.4C54,19.3,53.1,18.5,53.1,17.5 M49.2,10.2 c-1.7,1.9-3.4,3.2-4.5,4.1c-0.1,0.1-0.2,0.2-0.3,0.2c-0.1,0-0.2-0.1-0.1-0.3c0.3-1.8,1.4-3.4,2.8-4.9c0.7-0.8,2.8-2.5,3.7-2.5 c0.4,0,0.5,0.2,0.5,0.4C51.2,7.6,50.5,8.8,49.2,10.2 M40.9,16.8c-1.4,0.7-3.7,2.2-5.6,2.2c-1,0-2-0.6-2-1.7c0-1.2,1.3-2.7,4-2.7 c0.7,0,2.3,0.3,3.5,0.9c0.3,0.2,0.3,0.2,0.3,0.6C41.2,16.4,41.2,16.7,40.9,16.8 M39.3,3.4c0,1.4-6,4.6-9.2,6.4 C30,9.9,29.8,10,29.6,10c-1.6,0-4-1.2-4-2.9c0-0.7,0.4-1.7,1.3-2.5C28.6,3,31.6,2,35.3,2C36.7,2,39.3,2.3,39.3,3.4 M27,11.3 c0.2,0,0.2,0.2,0.1,0.3c-1.9,1-8.5,4.4-11.9,5.8c-0.2,0.1-0.3,0-0.3-0.2c0-0.1-0.1-0.3-0.1-0.6c0-0.9,0.7-2.5,2.1-3.5 c1.9-1.3,4.7-2,7.1-2C25.3,11,26.5,11.1,27,11.3 M124.6,17.1c-1.1,1.1-2.6,1.9-4,1.9c-0.2,0-1.2-0.1-1.2-0.9 c0-1.5,1.8-3.1,3.9-4.1c0.7-0.3,1.3-0.4,2-0.4c1,0,1.1,0.6,1.1,0.7C126.4,14.7,126.2,15.4,124.6,17.1"/><path class="st0" d="M166.8,11.5h-0.3v0.3h0.3c0.1,0,0.2,0,0.2-0.2C166.9,11.6,166.9,11.5,166.8,11.5 M166.9,12l0.2,0.5h-0.2 l-0.2-0.4h-0.2v0.4h-0.2v-1.1h0.5c0.2,0,0.4,0.1,0.4,0.3C167.1,11.9,167,12,166.9,12 M166.7,11.1c-0.5,0-0.9,0.4-0.9,0.9 c0,0.5,0.4,0.9,0.9,0.9c0.5,0,0.9-0.4,0.9-0.9C167.5,11.4,167.2,11.1,166.7,11.1 M166.7,13c-0.6,0-1-0.5-1-1c0-0.6,0.5-1,1-1 c0.6,0,1,0.4,1,1C167.7,12.5,167.2,13,166.7,13"/></g></g><g><path class="st0" d="M68.2,35.7c-1.9,0-3.2-1.5-3.2-3.9c0-2.4,1.3-3.9,3.2-3.9c1.9,0,3.2,1.5,3.2,3.9 C71.4,34.1,70.1,35.7,68.2,35.7z M68.2,29c-1.2,0-2,1-2,2.8s0.9,2.8,2.1,2.8c1.2,0,2.1-1,2.1-2.8C70.3,30.1,69.4,29,68.2,29z"/><path class="st0" d="M77.5,35.7c-1.9,0-2.8-1.2-2.8-3.3V28h1.1v4.4c0,1.4,0.6,2.2,1.7,2.2c1.2,0,1.8-0.7,1.8-2.1V28h1.1v4.4 C80.5,34.5,79.4,35.7,77.5,35.7z"/><path class="st0" d="M86.9,29.1v6.4h-1.1v-6.4h-2.2V28h5.5v1.1H86.9z"/><path class="st0" d="M92.2,35.6V28h1.1v6.4h3.8v1.1H92.2z"/><path class="st0" d="M99.7,35.6V28h4.9v1.1h-3.7V31h2.2v1.1h-2.2v2.4h3.9v1.1H99.7z"/><path class="st0" d="M110.9,29.1v6.4h-1.1v-6.4h-2.2V28h5.5v1.1H110.9z"/></g></svg>