<svg xmlns="http://www.w3.org/2000/svg" width="12" height="22" viewBox="0 0 12 22" focusable="false"><path fill="#000" fill-rule="evenodd" d="M11.34.504L8.52.5c-3.171 0-5.22 2.01-5.22 5.121v2.362H.46a.434.434 0 0 0-.444.424v3.422c0 .234.2.424.444.424H3.3v8.633c0 .234.198.424.444.424h3.702c.245 0 .444-.19.444-.424v-8.633h3.318c.245 0 .443-.19.443-.424l.002-3.422a.416.416 0 0 0-.13-.3.454.454 0 0 0-.314-.124h-3.32V5.98c0-.962.24-1.45 1.551-1.45l1.901-.001c.245 0 .444-.19.444-.424V.929a.434.434 0 0 0-.443-.425z"/></svg>