<svg xmlns="http://www.w3.org/2000/svg" width="21" height="22" viewBox="0 0 21 22" focusable="false"><path fill="#000" fill-rule="nonzero" d="M17.14 5.552c.001.49-.295.932-.749 1.12a1.217 1.217 0 0 1-1.324-.263 1.21 1.21 0 0 1 .86-2.069c.67 0 1.214.543 1.214 1.212zM21 11.025v.015l-.07 4.395c-.037 3.296-2.706 5.958-6.01 5.996l-4.42.069h-.015l-4.406-.069c-3.303-.037-5.972-2.7-6.01-5.996L0 11.025v-.015l.07-4.395C.106 3.319 2.775.656 6.08.619l4.42-.07.015.001 4.406.069c3.303.037 5.972 2.7 6.01 5.995l.069 4.41zm-1.956 0l-.068-4.38A4.128 4.128 0 0 0 14.89 2.57l-4.39-.068-4.39.068a4.128 4.128 0 0 0-4.086 4.076l-.068 4.38.068 4.38A4.128 4.128 0 0 0 6.11 19.48l4.39.068 4.39-.068a4.128 4.128 0 0 0 4.086-4.077l.068-4.38zm-6.48 4.97a5.401 5.401 0 0 1-5.877-1.166 5.37 5.37 0 0 1-1.169-5.863 5.392 5.392 0 0 1 4.982-3.32 5.392 5.392 0 0 1 5.392 5.379 5.38 5.38 0 0 1-3.329 4.97zm1.373-4.97a3.428 3.428 0 0 0-2.122-3.168 3.443 3.443 0 0 0-3.745.744 3.423 3.423 0 0 0-.745 3.736 3.437 3.437 0 0 0 6.612-1.312z"/></svg>