<svg xmlns="http://www.w3.org/2000/svg" width="17" height="23" viewBox="0 0 17 23" focusable="false"><path fill="#000" fill-rule="evenodd" d="M3.23 12.91l.25-1.045s.118-.278-.114-.567c-.285-.357-.902-1.006-.902-2.623 0-2.884 2.199-6.024 6.185-6.024 3.913 0 5.253 2.637 5.253 4.82 0 2.715-1.255 6.774-3.907 6.774-1.647 0-2.122-1.316-2.122-1.96-.01-.217.038-.437.059-.54.02-.104.69-2.311.903-3.098.479-1.764.07-3.231-1.497-3.231-2.208 0-3.002 3.216-2.033 5.274l-1.576 6.679s-.218 1.093-.26 1.738c-.065.99.07 2.457.117 2.894.034.316.034.468.174.497.14.028.377-.217.57-.51.24-.37 1.059-1.568 1.392-2.33.297-.68.35-.697.657-1.9.307-1.204.723-2.897.723-2.897s.863 1.568 3.199 1.568c3.321 0 6.699-2.995 6.699-8.592C17 3.299 13.203.5 8.904.5 3.49.5 0 4.474 0 8.309c0 3.741 2 4.619 2.42 4.87.418.254.716.076.81-.269z"/></svg>