<svg width="18" height="18" viewBox="0 0 18 18" xmlns="http://www.w3.org/2000/svg" xmlns:xlink="http://www.w3.org/1999/xlink"><defs><path d="m17.737 15.533-3.498-3.498a.841.841 0 0 0-.597-.246h-.572a7.263 7.263 0 0 0 1.544-4.49A7.297 7.297 0 0 0 7.316 0 7.297 7.297 0 0 0 .018 7.298a7.297 7.297 0 0 0 7.298 7.298 7.263 7.263 0 0 0 4.491-1.543v.572c0 .224.088.438.246.596l3.498 3.498c.33.33.863.33 1.19 0l.992-.993c.33-.33.33-.863.004-1.193zM7.316 11.79A4.489 4.489 0 0 1 2.825 7.3a4.489 4.489 0 0 1 4.49-4.492 4.489 4.489 0 0 1 4.492 4.491 4.489 4.489 0 0 1-4.491 4.491z" id="giy6e4mqpa"/></defs><g fill="none" fill-rule="evenodd"><mask id="3ebnmxv60b" fill="#fff"><use xlink:href="#giy6e4mqpa"/></mask><g mask="url(#3ebnmxv60b)" fill="#333" fill-rule="nonzero"><path d="M0 0h18v18H0z"/></g></g></svg>