<svg xmlns="http://www.w3.org/2000/svg" width="23" height="20" viewBox="0 0 23 20" focusable="false"><path fill="#000" fill-rule="evenodd" d="M23 2.75a9.354 9.354 0 0 1-2.711.755A4.796 4.796 0 0 0 22.364.852a9.36 9.36 0 0 1-2.997 1.163A4.672 4.672 0 0 0 15.924.5c-2.607 0-4.72 2.148-4.72 4.796 0 .376.043.742.124 1.093-3.922-.2-7.399-2.11-9.727-5.012A4.845 4.845 0 0 0 .963 3.79c0 1.664.831 3.131 2.099 3.993a4.636 4.636 0 0 1-2.137-.6v.06c0 2.325 1.626 4.261 3.783 4.704a4.62 4.62 0 0 1-2.131.081c.602 1.904 2.344 3.294 4.408 3.332A9.368 9.368 0 0 1 0 17.345 13.19 13.19 0 0 0 7.233 19.5c8.68 0 13.427-7.309 13.427-13.645 0-.21-.005-.417-.014-.622A9.677 9.677 0 0 0 23 2.75z"/></svg>