<svg xmlns="http://www.w3.org/2000/svg" xlink="http://www.w3.org/1999/xlink" width="23" height="18" viewBox="0 0 23 18" focusable="false"><path fill="#000" fill-rule="evenodd" d="M9.148 11.991V4.873l6.011 3.56-6.011 3.558zm13.371-9.358c-.264-1.036-1.044-1.852-2.033-2.13C18.692 0 11.5 0 11.5 0S4.308 0 2.514.503C1.524.781.745 1.597.481 2.633 0 4.513 0 8.432 0 8.432s0 3.92.48 5.799c.265 1.036 1.045 1.852 2.034 2.13 1.794.503 8.986.503 8.986.503s7.192 0 8.986-.503c.99-.278 1.769-1.094 2.033-2.13C23 12.35 23 8.432 23 8.432s0-3.92-.48-5.799z"/></svg>